<svg preserveAspectRatio="none" width="100%" height="100%" overflow="visible" style="display: block;" viewBox="0 0 14.834 14.8333" fill="none" xmlns="http://www.w3.org/2000/svg">
<path id="Vector" d="M6.57234 2.80066C8.12526 2.6156 9.69608 2.94387 11.0449 3.73536C12.3938 4.52685 13.4465 5.73804 14.0423 7.18399C14.0979 7.33367 14.0979 7.49832 14.0423 7.64799C13.7973 8.24199 13.4735 8.80033 13.0797 9.30799M8.80633 8.85534C8.42913 9.21966 7.92393 9.42125 7.39953 9.41669C6.87514 9.41213 6.37351 9.2018 6.0027 8.83098C5.63188 8.46016 5.42154 7.95854 5.41699 7.43415C5.41243 6.90975 5.61402 6.40455 5.97833 6.02734M11.0697 11.0827C10.1853 11.6065 9.19864 11.934 8.17658 12.043C7.15451 12.1519 6.12097 12.0397 5.14609 11.7139C4.17121 11.3882 3.2778 10.8566 2.52648 10.1552C1.77516 9.45376 1.18351 8.59892 0.79167 7.64869C0.73611 7.49901 0.73611 7.33437 0.79167 7.18469C1.38276 5.75126 2.42279 4.54819 3.75567 3.75602M0.750336 0.75L14.0837 14.0833" stroke="var(--stroke-0, #5A6F7C)" stroke-width="1.5" stroke-linecap="round" stroke-linejoin="round"/>
</svg>
