<svg preserveAspectRatio="none" width="100%" height="100%" overflow="visible" style="display: block;" viewBox="0 0 15.2137 15.2137" fill="none" xmlns="http://www.w3.org/2000/svg">
<g id="Vector">
<path d="M6.42256 13.7607C6.54259 13.9686 6.71522 14.1412 6.92311 14.2613C7.13099 14.3813 7.3668 14.4444 7.60684 14.4444C7.84688 14.4444 8.08269 14.3813 8.29057 14.2613C8.49845 14.1412 8.67108 13.9686 8.79111 13.7607" fill="var(--fill-0, #FF5A00)"/>
<path d="M14.4444 4.87186C14.4444 3.29921 13.8974 1.93169 13.0769 0.769294Z" fill="var(--fill-0, #FF5A00)"/>
<path d="M1.63214 9.88109C1.54281 9.97899 1.48387 10.1007 1.46247 10.2315C1.44107 10.3623 1.45813 10.4965 1.5116 10.6178C1.56506 10.739 1.65261 10.8422 1.76359 10.9146C1.87458 10.987 2.00423 11.0256 2.13675 11.0257H13.0769C13.2094 11.0258 13.3391 10.9873 13.4502 10.915C13.5612 10.8427 13.6489 10.7397 13.7025 10.6185C13.7561 10.4973 13.7733 10.3632 13.7521 10.2324C13.7309 10.1016 13.6721 9.97979 13.5829 9.88177C12.6735 8.94434 11.7094 7.9481 11.7094 4.87186C11.7094 3.78379 11.2772 2.74029 10.5078 1.97091C9.73841 1.20153 8.69491 0.769294 7.60684 0.769294C6.51877 0.769294 5.47527 1.20153 4.70589 1.97091C3.93651 2.74029 3.50428 3.78379 3.50428 4.87186C3.50428 7.9481 2.53949 8.94434 1.63214 9.88109Z" fill="var(--fill-0, #FF5A00)"/>
<path d="M2.13675 0.769294C1.31624 1.93169 0.769231 3.29921 0.769231 4.87186Z" fill="var(--fill-0, #FF5A00)"/>
<path d="M6.42256 13.7607C6.54259 13.9686 6.71522 14.1412 6.92311 14.2613C7.13099 14.3813 7.3668 14.4444 7.60684 14.4444C7.84688 14.4444 8.08269 14.3813 8.29057 14.2613C8.49845 14.1412 8.67108 13.9686 8.79111 13.7607M14.4444 4.87186C14.4444 3.29921 13.8974 1.93169 13.0769 0.769294M2.13675 0.769294C1.31624 1.93169 0.769231 3.29921 0.769231 4.87186M1.63214 9.88109C1.54281 9.97899 1.48387 10.1007 1.46247 10.2315C1.44107 10.3623 1.45813 10.4965 1.5116 10.6178C1.56506 10.739 1.65261 10.8422 1.76359 10.9146C1.87458 10.987 2.00423 11.0256 2.13675 11.0257H13.0769C13.2094 11.0258 13.3391 10.9873 13.4502 10.915C13.5612 10.8427 13.6489 10.7397 13.7025 10.6185C13.7561 10.4973 13.7733 10.3632 13.7521 10.2324C13.7309 10.1016 13.6721 9.97979 13.5829 9.88177C12.6735 8.94434 11.7094 7.9481 11.7094 4.87186C11.7094 3.78379 11.2772 2.74029 10.5078 1.97091C9.73841 1.20153 8.69491 0.769294 7.60684 0.769294C6.51877 0.769294 5.47527 1.20153 4.70589 1.97091C3.93651 2.74029 3.50428 3.78379 3.50428 4.87186C3.50428 7.9481 2.53949 8.94434 1.63214 9.88109Z" stroke="var(--stroke-0, #08283B)" stroke-width="1.53846" stroke-linecap="round" stroke-linejoin="round"/>
</g>
</svg>
