<svg width="170" height="186" viewBox="0 0 170 186" fill="none" xmlns="http://www.w3.org/2000/svg">
<path d="M159.296 60.8461C159.296 60.8461 134.257 82.8239 163.087 129.886C188.692 171.682 131.141 189.8 106.341 184.948C74.2152 178.664 55.7697 138.058 31.2017 150.924C6.63366 163.79 -17.7051 105.488 18.0315 84.034C62.4862 57.3465 33.9558 41.838 37.9484 22.2699C40.8141 8.22607 81.5926 -13.4871 103.58 11.281C122.083 32.1231 131.157 24.6667 139.614 21.8843C151.811 17.8714 178.434 38.7449 159.296 60.8461Z" fill="#FFEFE6"/>
<path d="M88.4019 85.6128L80.1986 119.261C79.8941 120.509 79.8384 121.805 80.0347 123.074C80.231 124.344 80.6755 125.562 81.3428 126.659C82.0101 127.757 82.8871 128.712 83.9237 129.471C84.9603 130.229 86.1361 130.776 87.3841 131.08L128.183 141.026C129.232 152.544 138.764 153.396 142.524 153.79C142.561 153.792 142.598 153.782 142.629 153.761C142.659 153.74 142.682 153.71 142.694 153.674C142.705 153.639 142.704 153.601 142.692 153.566C142.68 153.531 142.656 153.501 142.625 153.481C139.924 151.835 139.118 147.322 138.938 143.648L141.967 144.387C143.214 144.691 144.51 144.747 145.779 144.55C147.049 144.354 148.267 143.91 149.365 143.242C150.462 142.575 151.417 141.698 152.176 140.662C152.934 139.625 153.481 138.449 153.785 137.201L161.988 103.552C162.293 102.305 162.349 101.009 162.152 99.7397C161.956 98.4703 161.511 97.2521 160.844 96.1545C160.177 95.057 159.3 94.1017 158.263 93.3432C157.227 92.5847 156.051 92.0379 154.803 91.734L100.22 78.4273C98.9725 78.1227 97.6769 78.067 96.4075 78.2633C95.1382 78.4596 93.9199 78.9041 92.8224 79.5714C91.7249 80.2387 90.7696 81.1157 90.0111 82.1523C89.2526 83.1889 88.7058 84.3648 88.4019 85.6128Z" fill="#FFB38A"/>
<path d="M156.078 102.213L133.264 96.6508C133.114 96.6142 132.963 96.7063 132.926 96.8565L131.756 101.657C131.719 101.807 131.811 101.959 131.961 101.996L154.775 107.557C154.925 107.594 155.077 107.502 155.113 107.352L156.284 102.551C156.32 102.401 156.228 102.249 156.078 102.213Z" fill="#FDFDFD"/>
<path d="M152.821 115.575L91.0084 100.505C90.8581 100.469 90.7066 100.561 90.67 100.711L89.4996 105.512C89.463 105.662 89.5551 105.813 89.7053 105.85L151.518 120.919C151.668 120.956 151.819 120.864 151.856 120.714L153.026 115.913C153.063 115.763 152.971 115.611 152.821 115.575Z" fill="#FFCCB0"/>
<path d="M149.563 128.937L87.7508 113.868C87.6006 113.831 87.4491 113.923 87.4124 114.073L86.2421 118.874C86.2054 119.024 86.2975 119.176 86.4478 119.212L148.26 134.282C148.41 134.318 148.562 134.226 148.598 134.076L149.769 129.275C149.805 129.125 149.713 128.974 149.563 128.937Z" fill="#FFCCB0"/>
<path d="M111.372 45.2483L124.787 88.3263C125.285 89.9237 125.463 91.6036 125.312 93.27C125.16 94.9364 124.682 96.5566 123.904 98.038C123.126 99.5194 122.064 100.833 120.778 101.904C119.492 102.975 118.008 103.782 116.41 104.279L64.1795 120.543C63.7569 135.603 51.4338 137.489 46.5767 138.309C46.5286 138.315 46.4796 138.306 46.4377 138.281C46.3958 138.256 46.3633 138.218 46.3454 138.173C46.3275 138.128 46.3252 138.078 46.3389 138.031C46.3526 137.985 46.3814 137.944 46.4209 137.916C49.7973 135.555 50.4769 129.622 50.4109 124.83L46.5329 126.038C44.9355 126.536 43.2557 126.714 41.5894 126.562C39.9232 126.411 38.3031 125.932 36.8217 125.155C35.3403 124.377 34.0267 123.315 32.9559 122.029C31.8851 120.743 31.0782 119.259 30.581 117.662L17.1665 74.5838C16.6686 72.9863 16.4903 71.3064 16.6418 69.64C16.7933 67.9736 17.2717 66.3535 18.0495 64.872C18.8274 63.3906 19.8896 62.0769 21.1753 61.0061C22.461 59.9353 23.9452 59.1282 25.5429 58.6312L95.4198 36.872C97.0173 36.374 98.6972 36.1957 100.364 36.3472C102.03 36.4988 103.65 36.9771 105.132 37.755C106.613 38.5329 107.927 39.595 108.997 40.8807C110.068 42.1665 110.875 43.6506 111.372 45.2483Z" fill="#FF7B33"/>
<path d="M62.0226 60.6771L24.6035 72.3143C24.4558 72.3602 24.3733 72.5172 24.4192 72.6649L26.3814 78.9742C26.4273 79.1218 26.5843 79.2043 26.7319 79.1584L64.1511 67.5212C64.2988 67.4753 64.3813 67.3184 64.3354 67.1707L62.3732 60.8614C62.3273 60.7137 62.1703 60.6312 62.0226 60.6771Z" fill="#FDFDFD"/>
<path d="M109.244 64.6756L29.9497 89.3684C29.8021 89.4144 29.7196 89.5714 29.7656 89.719L31.7299 96.0268C31.7759 96.1745 31.9329 96.2569 32.0805 96.2109L111.375 71.5181C111.522 71.4721 111.605 71.3151 111.559 71.1675L109.595 64.8597C109.549 64.712 109.392 64.6296 109.244 64.6756Z" fill="#FFCCB0"/>
<path d="M114.564 81.8697L35.2507 106.535C35.103 106.581 35.0205 106.738 35.0664 106.886L37.0286 113.195C37.0745 113.343 37.2315 113.426 37.3792 113.38L116.692 88.7137C116.84 88.6678 116.922 88.5109 116.876 88.3632L114.914 82.0539C114.868 81.9062 114.711 81.8237 114.564 81.8697Z" fill="#FFCCB0"/>
</svg>
