<svg width="19" height="19" viewBox="0 0 19 19" fill="none" xmlns="http://www.w3.org/2000/svg">
<path d="M5.99969 9.33313H6.00803M9.33303 9.33313H9.34136M12.6664 9.33313H12.6747M1.82641 12.9514C1.94894 13.2605 1.97622 13.5992 1.90474 13.9239L1.01724 16.6656C0.988646 16.8046 0.99604 16.9487 1.03872 17.084C1.0814 17.2194 1.15796 17.3416 1.26113 17.4391C1.3643 17.5366 1.49067 17.6062 1.62824 17.6411C1.76582 17.6761 1.91004 17.6753 2.04724 17.6389L4.89141 16.8072C5.19784 16.7465 5.51518 16.773 5.80724 16.8839C7.58673 17.7149 9.60255 17.8907 11.499 17.3803C13.3955 16.8699 15.0508 15.7061 16.1728 14.0942C17.2948 12.4823 17.8115 10.5259 17.6317 8.5702C17.4518 6.61449 16.587 4.78514 15.1898 3.40491C13.7926 2.02468 11.9528 1.18228 9.99506 1.02633C8.03729 0.870374 6.08735 1.4109 4.48928 2.55253C2.8912 3.69416 1.74769 5.36353 1.26049 7.26611C0.773289 9.16869 0.973717 11.1822 1.82641 12.9514Z" stroke="#08283B" stroke-width="2" stroke-linecap="round" stroke-linejoin="round"/>
</svg>
